<svg xmlns="http://www.w3.org/2000/svg" xmlns:xlink="http://www.w3.org/1999/xlink" width="504" zoomAndPan="magnify" viewBox="0 0 378 374.999991" height="500" preserveAspectRatio="xMidYMid meet" version="1.0"><defs><clipPath id="235b230038"><path d="M 200 5 L 373 5 L 373 172 L 200 172 Z M 200 5 " clip-rule="nonzero"/></clipPath><clipPath id="388a342525"><path d="M 338.03125 0 L 377.753906 41.957031 L 235.007812 177.101562 L 195.285156 135.148438 Z M 338.03125 0 " clip-rule="nonzero"/></clipPath><clipPath id="67c741e6ce"><path d="M 346.796875 9.257812 L 368.988281 32.695312 C 371.3125 35.152344 372.566406 38.429688 372.472656 41.8125 C 372.382812 45.191406 370.949219 48.398438 368.496094 50.722656 L 244.402344 168.207031 C 241.945312 170.53125 238.667969 171.785156 235.289062 171.695312 C 231.90625 171.601562 228.703125 170.171875 226.378906 167.714844 L 204.1875 144.277344 C 201.863281 141.820312 200.609375 138.542969 200.699219 135.164062 C 200.792969 131.78125 202.226562 128.578125 204.679688 126.253906 L 328.773438 8.765625 C 331.230469 6.441406 334.507812 5.1875 337.886719 5.28125 C 341.269531 5.371094 344.472656 6.804688 346.796875 9.257812 Z M 346.796875 9.257812 " clip-rule="nonzero"/></clipPath><clipPath id="655b77f943"><path d="M 0.398438 0.0390625 L 172.71875 0.0390625 L 172.71875 166.839844 L 0.398438 166.839844 Z M 0.398438 0.0390625 " clip-rule="nonzero"/></clipPath><clipPath id="868bdd3177"><path d="M 138.03125 -5 L 177.753906 36.957031 L 35.007812 172.101562 L -4.714844 130.148438 Z M 138.03125 -5 " clip-rule="nonzero"/></clipPath><clipPath id="c1619f2ad1"><path d="M 146.796875 4.257812 L 168.988281 27.695312 C 171.3125 30.152344 172.566406 33.429688 172.472656 36.8125 C 172.382812 40.191406 170.949219 43.398438 168.496094 45.722656 L 44.402344 163.207031 C 41.945312 165.53125 38.667969 166.785156 35.289062 166.695312 C 31.90625 166.601562 28.703125 165.171875 26.378906 162.714844 L 4.1875 139.277344 C 1.863281 136.820312 0.609375 133.542969 0.699219 130.164062 C 0.792969 126.78125 2.226562 123.578125 4.679688 121.253906 L 128.773438 3.765625 C 131.230469 1.441406 134.507812 0.1875 137.886719 0.28125 C 141.269531 0.371094 144.472656 1.804688 146.796875 4.257812 Z M 146.796875 4.257812 " clip-rule="nonzero"/></clipPath><clipPath id="84f9a15b32"><rect x="0" width="173" y="0" height="167"/></clipPath><clipPath id="11245e08b3"><path d="M 240.964844 117.332031 L 255.644531 117.332031 L 255.644531 132.46875 L 240.964844 132.46875 Z M 240.964844 117.332031 " clip-rule="nonzero"/></clipPath><clipPath id="4d91b4e450"><path d="M 248.304688 117.332031 C 244.25 117.332031 240.964844 120.71875 240.964844 124.894531 C 240.964844 129.070312 244.25 132.457031 248.304688 132.457031 C 252.355469 132.457031 255.644531 129.070312 255.644531 124.894531 C 255.644531 120.71875 252.355469 117.332031 248.304688 117.332031 Z M 248.304688 117.332031 " clip-rule="nonzero"/></clipPath><clipPath id="3fc04f0a12"><path d="M 0.964844 0.332031 L 15.644531 0.332031 L 15.644531 15.46875 L 0.964844 15.46875 Z M 0.964844 0.332031 " clip-rule="nonzero"/></clipPath><clipPath id="6b485efd57"><path d="M 8.304688 0.332031 C 4.25 0.332031 0.964844 3.71875 0.964844 7.894531 C 0.964844 12.070312 4.25 15.457031 8.304688 15.457031 C 12.355469 15.457031 15.644531 12.070312 15.644531 7.894531 C 15.644531 3.71875 12.355469 0.332031 8.304688 0.332031 Z M 8.304688 0.332031 " clip-rule="nonzero"/></clipPath><clipPath id="694c1c9e28"><rect x="0" width="16" y="0" height="16"/></clipPath><clipPath id="163bb120f7"><path d="M 321.527344 39.054688 L 336.207031 39.054688 L 336.207031 54.191406 L 321.527344 54.191406 Z M 321.527344 39.054688 " clip-rule="nonzero"/></clipPath><clipPath id="fae4d729f0"><path d="M 328.867188 39.054688 C 324.8125 39.054688 321.527344 42.441406 321.527344 46.617188 C 321.527344 50.792969 324.8125 54.179688 328.867188 54.179688 C 332.921875 54.179688 336.207031 50.792969 336.207031 46.617188 C 336.207031 42.441406 332.921875 39.054688 328.867188 39.054688 Z M 328.867188 39.054688 " clip-rule="nonzero"/></clipPath><clipPath id="b5ba8a3407"><path d="M 0.527344 0.0546875 L 15.207031 0.0546875 L 15.207031 15.191406 L 0.527344 15.191406 Z M 0.527344 0.0546875 " clip-rule="nonzero"/></clipPath><clipPath id="ce63836f00"><path d="M 7.867188 0.0546875 C 3.8125 0.0546875 0.527344 3.441406 0.527344 7.617188 C 0.527344 11.792969 3.8125 15.179688 7.867188 15.179688 C 11.921875 15.179688 15.207031 11.792969 15.207031 7.617188 C 15.207031 3.441406 11.921875 0.0546875 7.867188 0.0546875 Z M 7.867188 0.0546875 " clip-rule="nonzero"/></clipPath><clipPath id="1321e7c127"><rect x="0" width="16" y="0" height="16"/></clipPath></defs><path stroke-linecap="round" transform="matrix(0.525101, -0.535508, 0.535508, 0.525101, 3.850755, 337.590885)" fill="none" stroke-linejoin="miter" d="M 9.102603 8.998329 C 162.636878 8.998397 291.458048 8.999068 395.566111 9.000342 " stroke="#ffffff" stroke-width="18" stroke-opacity="1" stroke-miterlimit="4"/><path stroke-linecap="round" transform="matrix(0.657044, -0.361654, 0.361654, 0.657044, -0.000283194, 333.512059)" fill="none" stroke-linejoin="miter" d="M 12.850748 14.111982 C 87.137718 67.617194 218.603982 66.633873 407.254103 11.16453 " stroke="#ffffff" stroke-width="18" stroke-opacity="1" stroke-miterlimit="4"/><path stroke-linecap="round" transform="matrix(0.504533, 0.554929, -0.554929, 0.504533, 216.709795, 121.170234)" fill="none" stroke-linejoin="miter" d="M 9.003038 8.999904 L 119.060367 9.000252 " stroke="#ffffff" stroke-width="18" stroke-opacity="1" stroke-miterlimit="4"/><path stroke-linecap="butt" transform="matrix(0.530253, -0.530407, 0.530407, 0.530253, 162.663745, 208.5023)" fill="none" stroke-linejoin="miter" d="M -0.00172092 3.500519 L 62.949202 3.498566 " stroke="#ffffff" stroke-width="7" stroke-opacity="1" stroke-miterlimit="4"/><g clip-path="url(#235b230038)"><g clip-path="url(#388a342525)"><g clip-path="url(#67c741e6ce)"><g transform="matrix(1, 0, 0, 1, 200, 5)"><g clip-path="url(#84f9a15b32)"><g clip-path="url(#655b77f943)"><g clip-path="url(#868bdd3177)"><g clip-path="url(#c1619f2ad1)"><path fill="#ffffff" d="M 138.03125 -5 L 177.753906 36.957031 L 35.171875 171.945312 L -4.550781 129.992188 Z M 138.03125 -5 " fill-opacity="1" fill-rule="nonzero"/></g></g></g></g></g></g></g></g><g clip-path="url(#11245e08b3)"><g clip-path="url(#4d91b4e450)"><g transform="matrix(1, 0, 0, 1, 240, 117)"><g clip-path="url(#694c1c9e28)"><g clip-path="url(#3fc04f0a12)"><g clip-path="url(#6b485efd57)"><path fill="#000000" d="M 0.964844 0.332031 L 15.644531 0.332031 L 15.644531 15.46875 L 0.964844 15.46875 Z M 0.964844 0.332031 " fill-opacity="1" fill-rule="nonzero"/></g></g></g></g></g></g><g clip-path="url(#163bb120f7)"><g clip-path="url(#fae4d729f0)"><g transform="matrix(1, 0, 0, 1, 321, 39)"><g clip-path="url(#1321e7c127)"><g clip-path="url(#b5ba8a3407)"><g clip-path="url(#ce63836f00)"><path fill="#000000" d="M 0.527344 0.0546875 L 15.207031 0.0546875 L 15.207031 15.191406 L 0.527344 15.191406 Z M 0.527344 0.0546875 " fill-opacity="1" fill-rule="nonzero"/></g></g></g></g></g></g></svg>