<svg xmlns="http://www.w3.org/2000/svg" xmlns:xlink="http://www.w3.org/1999/xlink" width="504" zoomAndPan="magnify" viewBox="0 0 378 374.999991" height="500" preserveAspectRatio="xMidYMid meet" version="1.0"><defs><clipPath id="56ef82fa4f"><path d="M 0 55 L 291 55 L 291 375 L 0 375 Z M 0 55 " clip-rule="nonzero"/></clipPath><clipPath id="8ea0b930f4"><path d="M 0 118 L 347 118 L 347 375 L 0 375 Z M 0 118 " clip-rule="nonzero"/></clipPath><clipPath id="3cb6e40ebd"><path d="M 200 5 L 373 5 L 373 172 L 200 172 Z M 200 5 " clip-rule="nonzero"/></clipPath><clipPath id="45a1bee4de"><path d="M 337.875 0 L 377.597656 41.957031 L 234.851562 177.101562 L 195.128906 135.148438 Z M 337.875 0 " clip-rule="nonzero"/></clipPath><clipPath id="c7be4465d5"><path d="M 346.640625 9.261719 L 368.832031 32.699219 C 371.15625 35.152344 372.410156 38.433594 372.320312 41.8125 C 372.226562 45.191406 370.796875 48.398438 368.339844 50.722656 L 244.246094 168.207031 C 241.789062 170.53125 238.511719 171.789062 235.132812 171.695312 C 231.75 171.601562 228.546875 170.171875 226.222656 167.714844 L 204.03125 144.277344 C 201.707031 141.820312 200.453125 138.542969 200.546875 135.164062 C 200.636719 131.78125 202.070312 128.578125 204.523438 126.253906 L 328.617188 8.765625 C 331.074219 6.441406 334.351562 5.1875 337.734375 5.28125 C 341.113281 5.375 344.316406 6.804688 346.640625 9.261719 Z M 346.640625 9.261719 " clip-rule="nonzero"/></clipPath><clipPath id="20c2c987cb"><path d="M 0.398438 0.0390625 L 172.480469 0.0390625 L 172.480469 166.839844 L 0.398438 166.839844 Z M 0.398438 0.0390625 " clip-rule="nonzero"/></clipPath><clipPath id="88f37f6c6c"><path d="M 137.875 -5 L 177.597656 36.957031 L 34.851562 172.101562 L -4.871094 130.148438 Z M 137.875 -5 " clip-rule="nonzero"/></clipPath><clipPath id="1214625a16"><path d="M 146.640625 4.261719 L 168.832031 27.699219 C 171.15625 30.152344 172.410156 33.433594 172.320312 36.8125 C 172.226562 40.191406 170.796875 43.398438 168.339844 45.722656 L 44.246094 163.207031 C 41.789062 165.53125 38.511719 166.789062 35.132812 166.695312 C 31.75 166.601562 28.546875 165.171875 26.222656 162.714844 L 4.03125 139.277344 C 1.707031 136.820312 0.453125 133.542969 0.546875 130.164062 C 0.636719 126.78125 2.070312 123.578125 4.523438 121.253906 L 128.617188 3.765625 C 131.074219 1.441406 134.351562 0.1875 137.734375 0.28125 C 141.113281 0.375 144.316406 1.804688 146.640625 4.261719 Z M 146.640625 4.261719 " clip-rule="nonzero"/></clipPath><clipPath id="c36642aa90"><rect x="0" width="173" y="0" height="167"/></clipPath><clipPath id="d726b7d443"><path d="M 240.808594 117.332031 L 255.488281 117.332031 L 255.488281 132.46875 L 240.808594 132.46875 Z M 240.808594 117.332031 " clip-rule="nonzero"/></clipPath><clipPath id="bbf961973b"><path d="M 248.148438 117.332031 C 244.097656 117.332031 240.808594 120.71875 240.808594 124.894531 C 240.808594 129.070312 244.097656 132.457031 248.148438 132.457031 C 252.203125 132.457031 255.488281 129.070312 255.488281 124.894531 C 255.488281 120.71875 252.203125 117.332031 248.148438 117.332031 Z M 248.148438 117.332031 " clip-rule="nonzero"/></clipPath><clipPath id="427a488f16"><path d="M 0.808594 0.332031 L 15.488281 0.332031 L 15.488281 15.46875 L 0.808594 15.46875 Z M 0.808594 0.332031 " clip-rule="nonzero"/></clipPath><clipPath id="9e06a214d3"><path d="M 8.148438 0.332031 C 4.097656 0.332031 0.808594 3.71875 0.808594 7.894531 C 0.808594 12.070312 4.097656 15.457031 8.148438 15.457031 C 12.203125 15.457031 15.488281 12.070312 15.488281 7.894531 C 15.488281 3.71875 12.203125 0.332031 8.148438 0.332031 Z M 8.148438 0.332031 " clip-rule="nonzero"/></clipPath><clipPath id="f6c47f379d"><rect x="0" width="16" y="0" height="16"/></clipPath><clipPath id="89e49cb704"><path d="M 321.375 39.054688 L 336.050781 39.054688 L 336.050781 54.191406 L 321.375 54.191406 Z M 321.375 39.054688 " clip-rule="nonzero"/></clipPath><clipPath id="3ac60d4ac5"><path d="M 328.710938 39.054688 C 324.660156 39.054688 321.375 42.441406 321.375 46.617188 C 321.375 50.792969 324.660156 54.179688 328.710938 54.179688 C 332.765625 54.179688 336.050781 50.792969 336.050781 46.617188 C 336.050781 42.441406 332.765625 39.054688 328.710938 39.054688 Z M 328.710938 39.054688 " clip-rule="nonzero"/></clipPath><clipPath id="6f8e179c4e"><path d="M 0.375 0.0546875 L 15.050781 0.0546875 L 15.050781 15.191406 L 0.375 15.191406 Z M 0.375 0.0546875 " clip-rule="nonzero"/></clipPath><clipPath id="abb1d3a4ab"><path d="M 7.710938 0.0546875 C 3.660156 0.0546875 0.375 3.441406 0.375 7.617188 C 0.375 11.792969 3.660156 15.179688 7.710938 15.179688 C 11.765625 15.179688 15.050781 11.792969 15.050781 7.617188 C 15.050781 3.441406 11.765625 0.0546875 7.710938 0.0546875 Z M 7.710938 0.0546875 " clip-rule="nonzero"/></clipPath><clipPath id="9d88745339"><rect x="0" width="16" y="0" height="16"/></clipPath><clipPath id="ecec6b5f71"><rect x="0" width="378" y="0" height="375"/></clipPath></defs><g transform="matrix(1, 0, 0, 1, 0, 0)"><g clip-path="url(#ecec6b5f71)"><g clip-path="url(#56ef82fa4f)"><path stroke-linecap="round" transform="matrix(0.923844, -0.942152, 0.942152, 0.923844, 3.805619, 337.698729)" fill="none" stroke-linejoin="miter" d="M 5.030827 4.999981 C 92.404562 4.998973 165.700258 5.000093 224.922143 4.999196 " stroke="#000000" stroke-width="10" stroke-opacity="1" stroke-miterlimit="4"/></g><g clip-path="url(#8ea0b930f4)"><path stroke-linecap="round" transform="matrix(1.155978, -0.636281, 0.636281, 1.155978, 0.00301939, 333.593152)" fill="none" stroke-linejoin="miter" d="M 7.168783 7.862865 C 49.391639 38.331491 124.169495 37.778695 231.496903 6.208235 " stroke="#000000" stroke-width="10" stroke-opacity="1" stroke-miterlimit="4"/></g><path stroke-linecap="round" transform="matrix(0.887656, 0.976322, -0.976322, 0.887656, 216.440909, 121.276581)" fill="none" stroke-linejoin="miter" d="M 4.999905 5.001436 L 67.789699 4.998859 " stroke="#000000" stroke-width="10" stroke-opacity="1" stroke-miterlimit="4"/><g clip-path="url(#3cb6e40ebd)"><g clip-path="url(#45a1bee4de)"><g clip-path="url(#c7be4465d5)"><g transform="matrix(1, 0, 0, 1, 200, 5)"><g clip-path="url(#c36642aa90)"><g clip-path="url(#20c2c987cb)"><g clip-path="url(#88f37f6c6c)"><g clip-path="url(#1214625a16)"><path fill="#000000" d="M 137.875 -5 L 177.597656 36.957031 L 35.015625 171.949219 L -4.707031 129.992188 Z M 137.875 -5 " fill-opacity="1" fill-rule="nonzero"/></g></g></g></g></g></g></g></g><g clip-path="url(#d726b7d443)"><g clip-path="url(#bbf961973b)"><g transform="matrix(1, 0, 0, 1, 240, 117)"><g clip-path="url(#f6c47f379d)"><g clip-path="url(#427a488f16)"><g clip-path="url(#9e06a214d3)"><path fill="#ffffff" d="M 0.808594 0.332031 L 15.488281 0.332031 L 15.488281 15.46875 L 0.808594 15.46875 Z M 0.808594 0.332031 " fill-opacity="1" fill-rule="nonzero"/></g></g></g></g></g></g><g clip-path="url(#89e49cb704)"><g clip-path="url(#3ac60d4ac5)"><g transform="matrix(1, 0, 0, 1, 321, 39)"><g clip-path="url(#9d88745339)"><g clip-path="url(#6f8e179c4e)"><g clip-path="url(#abb1d3a4ab)"><path fill="#ffffff" d="M 0.375 0.0546875 L 15.050781 0.0546875 L 15.050781 15.191406 L 0.375 15.191406 Z M 0.375 0.0546875 " fill-opacity="1" fill-rule="nonzero"/></g></g></g></g></g></g><path stroke-linecap="butt" transform="matrix(0.932908, -0.933178, 0.933178, 0.932908, 162.497982, 208.488956)" fill="none" stroke-linejoin="miter" d="M -0.000939153 1.999807 L 35.779576 1.998696 " stroke="#000000" stroke-width="4" stroke-opacity="1" stroke-miterlimit="4"/></g></g></svg>